<svg width="192" height="192" viewBox="0 0 192 192" fill="none" xmlns="http://www.w3.org/2000/svg">
  <rect width="192" height="192" rx="24" fill="#3b82f6"/>
  <path d="M96 48C78.3 48 64 62.3 64 80V96C64 113.7 78.3 128 96 128C113.7 128 128 113.7 128 96V80C128 62.3 113.7 48 96 48Z" fill="white"/>
  <path d="M96 64C87.2 64 80 71.2 80 80V96C80 104.8 87.2 112 96 112C104.8 112 112 104.8 112 96V80C112 71.2 104.8 64 96 64Z" fill="#3b82f6"/>
  <circle cx="88" cy="84" r="4" fill="white"/>
  <circle cx="104" cy="84" r="4" fill="white"/>
  <path d="M88 100C88 104.4 91.6 108 96 108C100.4 108 104 104.4 104 100" stroke="white" stroke-width="2" stroke-linecap="round"/>
  <text x="96" y="156" text-anchor="middle" fill="white" font-family="system-ui" font-size="16" font-weight="600">Santaan</text>
</svg>
